<?xml version="1.0" encoding="UTF-8" standalone="no"?>
<!DOCTYPE svg PUBLIC "-//W3C//DTD SVG 1.1//EN" "http://www.w3.org/Graphics/SVG/1.1/DTD/svg11.dtd">
<svg version="1.1" xmlns="http://www.w3.org/2000/svg" xmlns:xlink="http://www.w3.org/1999/xlink" preserveAspectRatio="xMidYMid meet" viewBox="0 0 640 640" width="50" height="50"><defs><path d="M634 320C634 496.61 493.3 640 320 640C146.7 640 6 496.61 6 320C6 143.39 146.7 0 320 0C493.3 0 634 143.39 634 320Z" id="baua4CE2U"></path><path d="M204.67 228C218.11 228 229 238.89 229 252.33C229 305.87 229 442.13 229 495.67C229 509.11 218.11 520 204.67 520C182.33 520 139.67 520 117.33 520C103.89 520 93 509.11 93 495.67C93 442.13 93 305.87 93 252.33C93 238.89 103.89 228 117.33 228C139.67 228 182.33 228 204.67 228Z" id="h6bbv9qYT"></path><path d="M537 268C548.05 268 557 276.95 557 288C557 334.4 557 453.6 557 500C557 511.05 548.05 520 537 520C513.8 520 464.2 520 441 520C429.95 520 421 511.05 421 500C421 453.6 421 334.4 421 288C421 276.95 429.95 268 441 268C464.2 268 513.8 268 537 268Z" id="a2L2V5ataE"></path><path d="M538 337.67C538 364.72 516.04 386.67 489 386.67C461.96 386.67 440 364.72 440 337.67C440 310.63 461.96 288.67 489 288.67C516.04 288.67 538 310.63 538 337.67Z" id="c2C1wZv9uI"></path><path d="M548.44 274.67L386.44 478.67L220.44 358.67L100.44 512.67" id="eR7DE3Ik7"></path><path d="M562.44 272.67C562.44 282.61 554.37 290.67 544.44 290.67C534.5 290.67 526.44 282.61 526.44 272.67C526.44 262.74 534.5 254.67 544.44 254.67C554.37 254.67 562.44 262.74 562.44 272.67Z" id="g4BlRrbah"></path><path d="M240.44 360.67C240.44 370.61 232.37 378.67 222.44 378.67C212.5 378.67 204.44 370.61 204.44 360.67C204.44 350.74 212.5 342.67 222.44 342.67C232.37 342.67 240.44 350.74 240.44 360.67Z" id="b2wQ6j36zi"></path><path d="M119.44 512.67C119.44 522.61 111.37 530.67 101.44 530.67C91.5 530.67 83.44 522.61 83.44 512.67C83.44 502.74 91.5 494.67 101.44 494.67C111.37 494.67 119.44 502.74 119.44 512.67Z" id="e6b3nujJi"></path><path d="M402.44 472.67C402.44 482.61 394.37 490.67 384.44 490.67C374.5 490.67 366.44 482.61 366.44 472.67C366.44 462.74 374.5 454.67 384.44 454.67C394.37 454.67 402.44 462.74 402.44 472.67Z" id="a7J3QsBxDK"></path><path d="M377.72 86C386.16 86 393 92.84 393 101.28C393 185.02 393 420.98 393 504.72C393 513.16 386.16 520 377.72 520C353.58 520 296.42 520 272.28 520C263.84 520 257 513.16 257 504.72C257 420.98 257 185.02 257 101.28C257 92.84 263.84 86 272.28 86C296.42 86 353.58 86 377.72 86Z" id="a1c8m9rjtw"></path><path d="M210 293.67C210 320.72 188.04 342.67 161 342.67C133.96 342.67 112 320.72 112 293.67C112 266.63 133.96 244.67 161 244.67C188.04 244.67 210 266.63 210 293.67Z" id="e2kR2emDWe"></path><path d="M374 153.67C374 180.72 352.04 202.67 325 202.67C297.96 202.67 276 180.72 276 153.67C276 126.63 297.96 104.67 325 104.67C352.04 104.67 374 126.63 374 153.67Z" id="an4klm36W"></path></defs><g><g><g><use xlink:href="#baua4CE2U" opacity="0.15" fill="#eeeeff" fill-opacity="1"></use></g><g><use xlink:href="#h6bbv9qYT" opacity="1" fill="#ffd607" fill-opacity="1"></use></g><g><use xlink:href="#a2L2V5ataE" opacity="1" fill="#ff2929" fill-opacity="1"></use></g><g><use xlink:href="#c2C1wZv9uI" opacity="1" fill="#ff7e7e" fill-opacity="1"></use></g><g><g><use xlink:href="#eR7DE3Ik7" opacity="1" fill-opacity="0" stroke="#26350b" stroke-width="10" stroke-opacity="1"></use></g></g><g><use xlink:href="#g4BlRrbah" opacity="1" fill="#ff2929" fill-opacity="1"></use></g><g><use xlink:href="#b2wQ6j36zi" opacity="1" fill="#ff2929" fill-opacity="1"></use></g><g><use xlink:href="#e6b3nujJi" opacity="1" fill="#ff2929" fill-opacity="1"></use></g><g><use xlink:href="#a7J3QsBxDK" opacity="1" fill="#ff2929" fill-opacity="1"></use></g><g><use xlink:href="#a1c8m9rjtw" opacity="1" fill="#2196f3" fill-opacity="1"></use></g><g><use xlink:href="#e2kR2emDWe" opacity="1" fill="#ffee99" fill-opacity="1"></use></g><g><use xlink:href="#an4klm36W" opacity="1" fill="#6abdff" fill-opacity="1"></use></g></g></g></svg>